<svg width="92" height="19" viewBox="0 0 92 19" fill="none" xmlns="http://www.w3.org/2000/svg">
<g clip-path="url(#clip0_1_293)">
<g clip-path="url(#clip1_1_293)">
<path d="M12.027 9.65602L5.453 0.0200195H0V18.014H5.711V8.38402L12.286 18.014H17.738V0.0200195H12.028L12.027 9.65602ZM26.475 0.0200195L19.554 18.014H25.441L26.279 15.63H32.917L33.755 18.014H39.643L32.722 0.0200195H26.475ZM27.615 11.313L29.589 5.69302L31.562 11.313H27.615ZM64.12 11.178H72.17V6.85502H64.12V4.43302H72.257V0.0200195H58.497V18.014H72.427V13.607H64.12V11.178ZM46.64 11.853L42.486 0.0200195H36.605L43.525 18.014H49.754L56.68 0.0200195H50.793L46.64 11.853ZM87.524 11.847L88.06 11.615C90.109 10.742 91.155 8.84702 91.155 6.44402C91.155 4.17002 90.342 2.48702 88.741 1.44602C87.247 0.47602 85.318 0.0260195 82.658 0.0260195H75.208V18.02H80.748V12.99H82.74L86.113 18.02H92L87.537 11.847H87.524ZM83.68 8.40302H80.655V4.61302H83.68C84.708 4.61302 85.54 5.46102 85.54 6.50802C85.54 7.55502 84.708 8.40302 83.68 8.40302Z" fill="#1D1D1F"/>
</g>
</g>
<defs>
<clipPath id="clip0_1_293">
<rect width="92" height="18" fill="white" transform="translate(0 0.0200195)"/>
</clipPath>
<clipPath id="clip1_1_293">
<rect width="92" height="18" fill="white" transform="translate(0 0.0200195)"/>
</clipPath>
</defs>
</svg>
